HIERARCHY
ROOT Hips
{
	OFFSET 0.000000 0.000000 0.000000 
	CHANNELS 6 Xposition Yposition Zposition Zrotation Yrotation Xrotation
	JOINT LeftUpLeg
	{
		OFFSET 1.363060 -1.794630 0.839290 
		CHANNELS 3 Zrotation Yrotation Xrotation
		JOINT LeftLeg
		{
			OFFSET 2.448110 -6.726130 0.000000 
			CHANNELS 3 Zrotation Yrotation Xrotation
			JOINT LeftFoot
			{
				OFFSET 2.562200 -7.039590 0.000000 
				CHANNELS 3 Zrotation Yrotation Xrotation
				JOINT LeftToeBase
				{
					OFFSET 0.157640 -0.433110 2.322550 
					CHANNELS 3 Zrotation Yrotation Xrotation
					End Site
					{
						OFFSET 0.000000 0.000000 0.000000 
					}
				}
			}
		}
	}
	JOINT RightUpLeg
	{
		OFFSET -1.305520 -1.794630 0.839290 
		CHANNELS 3 Zrotation Yrotation Xrotation
		JOINT RightLeg
		{
			OFFSET -2.542530 -6.985550 0.000000 
			CHANNELS 3 Zrotation Yrotation Xrotation
			JOINT RightFoot
			{
				OFFSET -2.568260 -7.056230 0.000000 
				CHANNELS 3 Zrotation Yrotation Xrotation
				JOINT RightToeBase
				{
					OFFSET -0.164730 -0.452590 2.363150 
					CHANNELS 3 Zrotation Yrotation Xrotation
					End Site
					{
						OFFSET 0.000000 0.000000 0.000000 
					}
				}
			}
		}
	}
	JOINT Spine
	{
		OFFSET 0.028270 2.035590 -0.193380 
		CHANNELS 3 Zrotation Yrotation Xrotation
		JOINT Spine1
		{
			OFFSET 0.056720 2.048850 -0.042750 
			CHANNELS 3 Zrotation Yrotation Xrotation
			JOINT Neck1
			{
				OFFSET -0.054170 1.746240 0.172020 
				CHANNELS 3 Zrotation Yrotation Xrotation
				JOINT Head
				{
					OFFSET 0.104070 1.761360 -0.123970 
					CHANNELS 3 Zrotation Yrotation Xrotation
					End Site
					{
						OFFSET 0.000000 0.000000 0.000000 
					}
				}
			}
			JOINT LeftArm
			{
				OFFSET 3.362410 1.200890 -0.311210 
				CHANNELS 3 Zrotation Yrotation Xrotation
				JOINT LeftForeArm
				{
					OFFSET 4.983000 -0.000000 -0.000000 
					CHANNELS 3 Zrotation Yrotation Xrotation
					JOINT LeftHand
					{
						OFFSET 3.483560 -0.000000 -0.000000 
						CHANNELS 3 Zrotation Yrotation Xrotation
						JOINT LeftHandIndex1
						{
							OFFSET 0.715260 -0.000000 -0.000000 
							CHANNELS 3 Zrotation Yrotation Xrotation
							End Site
							{
								OFFSET 0.000000 0.000000 0.000000 
							}
						}
					}
				}
			}
			JOINT RightArm
			{
				OFFSET -3.136600 1.374050 -0.404650 
				CHANNELS 3 Zrotation Yrotation Xrotation
				JOINT RightForeArm
				{
					OFFSET -5.241900 -0.000000 -0.000000 
					CHANNELS 3 Zrotation Yrotation Xrotation
					JOINT RightHand
					{
						OFFSET -3.444170 -0.000000 -0.000000 
						CHANNELS 3 Zrotation Yrotation Xrotation
						JOINT RightHandIndex1
						{
							OFFSET -0.622530 -0.000000 -0.000000 
							CHANNELS 3 Zrotation Yrotation Xrotation
							End Site
							{
								OFFSET 0.000000 0.000000 0.000000 
							}
						}
					}
				}
			}
		}
	}
}
MOTION
Frames: 10
Frame Time: 0.041667
0.767673 18.541379 8.703339 -5.943261 -0.851951 11.106796 -13.336771 -33.643312 8.554331 -3.229531 -0.538277 0.429590 -12.089208 38.088077 -16.603864 0.000100 -0.076800 -0.211000 24.768580 23.139957 -3.464202 2.700303 -3.658599 11.580173 5.001830 -16.887891 -0.519522 -0.038400 1.264300 -3.476300 -15.576619 -2.850519 -25.657046 -5.240054 -1.376518 -16.945219 12.188090 -19.468061 53.182432 1.434100 -7.664200 16.494200 -80.486476 -16.103391 97.022070 67.207355 -52.254794 -48.297575 0.311975 0.480162 -44.929541 -7.125000 0.000000 0.000000 88.961724 7.806402 106.150175 -130.577264 51.473480 -97.452091 -1.344826 0.439581 -8.087846 7.125000 0.000000 0.000000 
0.760425 18.542535 8.706490 -6.003906 -0.331731 11.351318 -12.880109 -33.270207 7.765337 -3.190424 -0.472079 0.523639 -11.948659 37.663430 -15.450283 0.005600 -0.483600 -1.328900 24.752413 22.937167 -3.762137 2.703118 -3.688826 11.617665 5.050381 -17.030760 -0.696069 -0.038300 1.262800 -3.472200 -15.107634 -2.893759 -25.993721 -5.203789 -1.395556 -16.462374 12.277104 -20.301274 53.085874 1.423400 -8.200000 16.509400 -81.308472 -19.144516 99.132295 70.993098 -53.219149 -52.244629 0.196148 0.600943 -43.512538 -7.125000 0.000000 0.000000 89.141306 6.266508 105.042154 -131.552697 51.065283 -98.075359 -1.334037 0.430956 -5.094951 7.125000 0.000000 0.000000 
0.758429 18.538963 8.694620 -6.256375 0.215737 11.338850 -12.268033 -32.909814 7.139479 -3.148113 -0.403666 0.633537 -11.788449 37.187179 -14.360027 0.017400 -0.851100 -2.339200 25.049114 22.719520 -3.861502 2.699820 -3.720016 11.702347 5.105818 -17.185984 -0.970021 -0.034500 1.199300 -3.297200 -14.886341 -2.938468 -25.862077 -5.224696 -1.441403 -16.336330 12.344799 -21.059667 53.089310 1.376900 -8.672600 16.568900 -82.119373 -22.344782 101.323187 75.175165 -54.278040 -56.558710 0.022992 0.756300 -42.290616 -7.125000 0.000000 0.000000 90.505893 7.907970 106.057010 -135.215281 49.213945 -100.508332 -1.226768 0.217787 -3.369131 7.125000 0.000000 0.000000 
0.761790 18.534236 8.675291 -6.618511 0.844701 11.232132 -11.622663 -32.666715 6.612599 -3.104403 -0.325074 0.770030 -11.636150 36.733237 -13.334114 0.036000 -1.225100 -3.368500 25.461845 22.392503 -3.928101 2.693858 -3.750130 11.791029 5.153587 -17.332360 -1.186349 -0.031300 1.141600 -3.138400 -14.564764 -3.001220 -25.672486 -5.397938 -1.574245 -16.461449 12.486840 -21.716816 52.953367 1.367000 -9.077400 16.572200 -82.908999 -25.409787 103.667644 80.110552 -55.445065 -61.514046 -0.128010 0.730197 -42.664348 -7.125000 0.000000 0.000000 91.947352 5.627039 104.369922 -136.415234 48.675892 -101.296939 -1.218394 0.183149 -0.434090 7.125000 0.000000 0.000000 
0.773976 18.522681 8.648400 -8.000943 1.856364 10.858160 -10.052777 -32.254412 6.155142 -3.035893 -0.278036 0.867227 -11.473138 36.145722 -11.943056 0.072600 -1.738600 -4.783900 26.983902 21.731788 -3.830671 2.682603 -3.780594 11.887285 5.098075 -17.270460 -1.469050 -0.027900 1.078700 -2.965500 -12.530488 -2.533998 -25.247016 -6.580253 -1.839498 -16.781651 12.980531 -22.381681 52.941387 1.444300 -9.417700 16.571500 -83.776295 -28.401065 105.803958 85.293412 -56.512069 -66.375164 -0.178878 0.738897 -43.411618 -7.125000 0.000000 0.000000 92.117067 5.393874 103.949361 -137.322552 48.268957 -101.905629 -1.227702 0.140435 1.406720 7.125000 0.000000 0.000000 
0.759374 18.539383 8.637055 -7.101421 1.988409 11.173686 -10.601422 -32.635545 5.622503 -3.033477 -0.185181 1.017677 -11.439782 36.139883 -11.878179 0.076400 -1.783600 -4.907900 25.887451 22.123553 -4.198204 2.689815 -3.819795 11.944094 5.336415 -17.850482 -1.741242 -0.017000 0.842300 -2.315000 -13.589065 -3.091254 -25.274092 -5.604896 -1.795695 -16.551975 13.223438 -22.819605 52.437127 1.515100 -9.658400 16.504500 -84.814846 -31.162795 107.903337 89.907127 -57.182628 -70.512266 -0.131482 0.796809 -44.672828 -7.125000 0.000000 0.000000 92.234544 5.448689 103.527019 -138.186297 47.694441 -102.446799 -1.242660 0.105266 2.803265 7.125000 0.000000 0.000000 
0.754227 18.547367 8.626130 -6.786820 2.206648 11.301403 -10.646831 -32.815733 5.271516 -3.023316 -0.135405 1.080460 -11.378334 36.010885 -11.730672 0.077300 -1.793600 -4.935700 25.545055 22.253212 -4.335007 2.696491 -3.820473 11.932898 5.481823 -18.221722 -1.885724 -0.012500 0.720800 -1.981000 -14.346725 -3.518816 -25.283436 -5.177315 -1.852120 -16.564402 13.186148 -23.017582 52.128442 1.490000 -9.786600 16.387600 -85.663989 -33.367721 109.816504 93.898282 -57.558848 -73.840184 -0.169796 0.834376 -45.400074 -7.125000 0.000000 0.000000 92.434054 5.645621 103.281045 -138.835966 47.263220 -102.858757 -1.260997 0.082320 3.979209 7.125000 0.000000 0.000000 
0.755172 18.550623 8.619827 -6.733125 2.345297 11.353468 -10.559720 -33.009425 5.201600 -3.020761 -0.137516 1.029285 -11.369549 35.999631 -11.769039 0.074600 -1.762100 -4.848600 25.560287 22.271840 -4.330924 2.703872 -3.798242 11.882291 5.548976 -18.400400 -1.944555 -0.011300 0.685300 -1.883300 -15.114857 -3.900470 -25.438830 -5.066648 -1.958226 -16.788493 12.999318 -23.081442 51.962754 1.416200 -9.845800 16.327100 -86.210227 -34.787817 111.560296 96.872191 -57.696469 -76.169499 -0.181186 0.913384 -46.483229 -7.125000 0.000000 0.000000 92.729886 5.820122 103.247664 -139.352446 46.915525 -103.181751 -1.273626 0.061902 5.150156 7.125000 0.000000 0.000000 
0.757904 18.553879 8.617726 -6.621245 2.308254 11.404971 -10.577870 -33.236557 5.268888 -3.026967 -0.170143 0.909825 -11.417369 36.140674 -11.965098 0.066400 -1.663000 -4.575100 25.525971 22.358166 -4.289065 2.715668 -3.755608 11.794528 5.583933 -18.476073 -2.020727 -0.008000 0.579200 -1.591600 -16.115211 -4.304115 -25.427104 -4.925248 -2.043757 -16.952374 12.828571 -23.065996 51.767651 1.349500 -9.842800 16.254000 -86.392005 -35.698476 112.800592 99.564221 -57.707219 -78.191428 -0.040715 1.051125 -47.748426 -7.125000 0.000000 0.000000 92.927115 6.080057 103.400400 -139.764306 46.620039 -103.432659 -1.284654 0.042565 6.082687 7.125000 0.000000 0.000000 
0.761790 18.556401 8.615205 -6.573878 2.148355 11.432368 -10.545577 -33.240135 5.284667 -3.032024 -0.207385 0.798891 -11.448413 36.227695 -12.069611 0.059200 -1.570200 -4.319200 25.524989 22.538675 -4.202761 2.728578 -3.705572 11.683100 5.599606 -18.506083 -2.054553 -0.004600 0.439500 -1.207700 -16.753670 -4.512624 -25.251150 -4.905513 -2.092350 -17.066817 12.813880 -23.045728 51.782291 1.337300 -9.812200 16.323800 -86.315309 -36.243657 113.759294 101.291144 -57.655806 -79.429786 -0.109224 1.100958 -49.456783 -7.125000 0.000000 0.000000 92.834364 6.314704 103.481219 -139.972773 46.462228 -103.560529 -1.295886 0.038651 6.630774 7.125000 0.000000 0.000000 
